# WaveFront *.obj file (generated by Autodesk ATF)

mtllib HMI.mtl

g S贸lido1

v 0.000000 0.000000 0.000000
v 0.000000 0.000000 270.000000
v 0.000000 480.000000 270.000000
v 0.000000 480.000000 280.000000
v 0.000000 490.000000 -0.000000
v 0.000000 490.000000 280.000000
v 20.000000 20.000000 20.000000
v 20.000000 20.000000 270.000000
v 20.000000 470.000000 20.000000
v 20.000000 470.000000 270.000000
v 480.000000 20.000000 20.000000
v 480.000000 20.000000 270.000000
v 480.000000 470.000000 20.000000
v 480.000000 470.000000 270.000000
v 500.000000 -0.000000 -0.000000
v 500.000000 -0.000000 270.000000
v 500.000000 480.000000 270.000000
v 500.000000 480.000000 280.000000
v 500.000000 490.000000 -0.000000
v 500.000000 490.000000 280.000000
vt -50.000000 0.000000 0.000000
vt -0.000000 0.000000 0.000000
vt -0.000000 1.000000 0.000000
vt -50.000000 1.000000 0.000000
vt -23.000000 23.000000 0.000000
vt 23.000000 23.000000 0.000000
vt 23.000000 -22.000000 0.000000
vt -23.000000 -22.000000 0.000000
vt 25.000000 -24.000000 0.000000
vt 25.000000 24.000000 0.000000
vt -25.000000 24.000000 0.000000
vt -25.000000 -24.000000 0.000000
vt -25.000000 23.500000 0.000000
vt 25.000000 23.500000 0.000000
vt 25.000000 24.500000 0.000000
vt -25.000000 24.500000 0.000000
vt 48.000000 28.000000 0.000000
vt 48.000000 27.000000 0.000000
vt 0.000000 27.000000 0.000000
vt 0.000000 0.000000 0.000000
vt 49.000000 0.000000 0.000000
vt 49.000000 28.000000 0.000000
vt 50.000000 27.000000 0.000000
vt 0.000000 27.000000 0.000000
vt 0.000000 0.000000 0.000000
vt 50.000000 0.000000 0.000000
vt 1.000000 27.000000 0.000000
vt 1.000000 28.000000 0.000000
vt 0.000000 28.000000 0.000000
vt 0.000000 0.000000 0.000000
vt 49.000000 0.000000 0.000000
vt 49.000000 27.000000 0.000000
vt 0.000000 0.000000 0.000000
vt 50.000000 0.000000 0.000000
vt 50.000000 28.000000 0.000000
vt 0.000000 28.000000 0.000000
vt -25.000000 24.500000 0.000000
vt -25.000000 -24.500000 0.000000
vt 25.000000 -24.500000 0.000000
vt 25.000000 24.500000 0.000000
vt -46.000000 0.000000 0.000000
vt -0.000000 0.000000 0.000000
vt -0.000000 25.000000 0.000000
vt -46.000000 25.000000 0.000000
vt -45.000000 0.000000 0.000000
vt -0.000000 0.000000 0.000000
vt -0.000000 25.000000 0.000000
vt -45.000000 25.000000 0.000000
vt -46.000000 0.000000 0.000000
vt -0.000000 0.000000 0.000000
vt -0.000000 25.000000 0.000000
vt -46.000000 25.000000 0.000000
vt -45.000000 0.000000 0.000000
vt -0.000000 0.000000 0.000000
vt -0.000000 25.000000 0.000000
vt -45.000000 25.000000 0.000000
vt 23.000000 -22.500000 0.000000
vt 23.000000 22.500000 0.000000
vt -23.000000 22.500000 0.000000
vt -23.000000 -22.500000 0.000000
vn -0.000000 -0.100000 0.000000
vn -0.000000 -0.100000 0.000000
vn -0.000000 -0.100000 0.000000
vn -0.000000 -0.100000 0.000000
vn 0.000000 0.000000 0.100000
vn 0.000000 0.000000 0.100000
vn 0.000000 0.000000 0.100000
vn 0.000000 0.000000 0.100000
vn 0.000000 0.000000 0.100000
vn 0.000000 0.000000 0.100000
vn 0.000000 0.000000 0.100000
vn 0.000000 0.000000 0.100000
vn 0.000000 0.000000 0.100000
vn 0.000000 0.000000 0.100000
vn 0.000000 0.000000 0.100000
vn 0.000000 0.000000 0.100000
vn 0.100000 -0.000000 -0.000000
vn 0.100000 -0.000000 -0.000000
vn 0.100000 -0.000000 -0.000000
vn 0.100000 -0.000000 -0.000000
vn 0.100000 -0.000000 -0.000000
vn 0.100000 -0.000000 -0.000000
vn -0.000000 -0.100000 0.000000
vn -0.000000 -0.100000 0.000000
vn -0.000000 -0.100000 0.000000
vn -0.000000 -0.100000 0.000000
vn -0.100000 0.000000 0.000000
vn -0.100000 0.000000 0.000000
vn -0.100000 0.000000 0.000000
vn -0.100000 0.000000 0.000000
vn -0.100000 0.000000 0.000000
vn -0.100000 0.000000 0.000000
vn 0.000000 0.100000 -0.000000
vn 0.000000 0.100000 -0.000000
vn 0.000000 0.100000 -0.000000
vn 0.000000 0.100000 -0.000000
vn -0.000000 -0.000000 -0.100000
vn -0.000000 -0.000000 -0.100000
vn -0.000000 -0.000000 -0.100000
vn -0.000000 -0.000000 -0.100000
vn -0.000000 -0.100000 0.000000
vn -0.000000 -0.100000 0.000000
vn -0.000000 -0.100000 0.000000
vn -0.000000 -0.100000 0.000000
vn 0.100000 -0.000000 -0.000000
vn 0.100000 -0.000000 -0.000000
vn 0.100000 -0.000000 -0.000000
vn 0.100000 -0.000000 -0.000000
vn 0.000000 0.100000 -0.000000
vn 0.000000 0.100000 -0.000000
vn 0.000000 0.100000 -0.000000
vn 0.000000 0.100000 -0.000000
vn -0.100000 0.000000 0.000000
vn -0.100000 0.000000 0.000000
vn -0.100000 0.000000 0.000000
vn -0.100000 0.000000 0.000000
vn 0.000000 0.000000 0.100000
vn 0.000000 0.000000 0.100000
vn 0.000000 0.000000 0.100000
vn 0.000000 0.000000 0.100000
usemtl 191,191,191
f 18/1/1 4/2/2 17/4/4
f 17/4/4 4/2/2 3/3/3
f 8/8/8 10/5/5 3/11/11
f 3/11/11 10/5/5 14/6/6
f 3/11/11 14/6/6 17/10/10
f 17/10/10 14/6/6 12/7/7
f 17/10/10 12/7/7 16/9/9
f 16/9/9 12/7/7 8/8/8
f 16/9/9 8/8/8 2/12/12
f 2/12/12 8/8/8 3/11/11
f 4/13/13 18/14/14 6/16/16
f 6/16/16 18/14/14 20/15/15
f 18/17/17 17/18/18 20/22/22
f 20/22/22 17/18/18 19/21/21
f 19/21/21 17/18/18 15/20/20
f 15/20/20 17/18/18 16/19/19
f 16/23/23 2/24/24 15/26/26
f 15/26/26 2/24/24 1/25/25
f 4/28/28 6/29/29 3/27/27
f 3/27/27 6/29/29 5/30/30
f 3/27/27 5/30/30 1/31/31
f 1/31/31 2/32/32 3/27/27
f 19/33/33 5/34/34 20/36/36
f 20/36/36 5/34/34 6/35/35
f 15/38/38 1/39/39 19/37/37
f 19/37/37 1/39/39 5/40/40
f 14/41/41 10/42/42 13/44/44
f 13/44/44 10/42/42 9/43/43
f 10/45/45 8/46/46 9/48/48
f 9/48/48 8/46/46 7/47/47
f 8/49/49 12/50/50 7/52/52
f 7/52/52 12/50/50 11/51/51
f 12/53/53 14/54/54 11/56/56
f 11/56/56 14/54/54 13/55/55
f 13/58/58 9/59/59 11/57/57
f 11/57/57 9/59/59 7/60/60
g S贸lido1:1

v 0.000000 -0.000000 270.000000
v 0.000000 470.000000 270.000000
v 0.761205 0.761205 273.826834
v 1.339746 470.000000 275.000000
v 2.928932 2.928932 277.071068
v 5.000000 470.000000 278.660254
v 6.173165 6.173165 279.238795
v 10.000000 10.000000 280.000000
v 10.000000 470.000000 280.000000
v 490.000000 10.000000 280.000000
v 490.000000 470.000000 280.000000
v 493.826828 6.173165 279.238795
v 495.000000 470.000000 278.660254
v 497.071075 2.928932 277.071068
v 498.660240 470.000000 275.000000
v 499.238777 0.761205 273.826834
v 500.000000 -0.000000 270.000000
v 500.000000 470.000000 270.000000
vt 11.750000 0.785398 0.000000
vt -35.250000 0.785398 0.000000
vt -35.250000 0.261799 0.000000
vt -35.250000 -0.261799 0.000000
vt -35.250000 -0.785398 0.000000
vt 10.750000 -0.785398 0.000000
vt 11.132684 -0.392699 0.000000
vt 11.457107 0.000000 0.000000
vt 11.673880 0.392699 0.000000
vt 12.500000 0.785398 0.000000
vt -37.500000 0.785398 0.000000
vt -37.423878 0.392699 0.000000
vt -37.207108 0.000000 0.000000
vt -36.882683 -0.392699 0.000000
vt -36.500000 -0.785398 0.000000
vt 11.500000 -0.785398 0.000000
vt 11.882684 -0.392699 0.000000
vt 12.207107 0.000000 0.000000
vt 12.423880 0.392699 0.000000
vt -34.250000 -0.785398 0.000000
vt 11.750000 -0.785398 0.000000
vt 11.750000 -0.261799 0.000000
vt 11.750000 0.261799 0.000000
vt 11.750000 0.785398 0.000000
vt -35.250000 0.785398 0.000000
vt -35.173878 0.392699 0.000000
vt -34.957108 0.000000 0.000000
vt -34.632683 -0.392699 0.000000
vt -24.000000 23.500000 0.000000
vt -24.000000 -22.500000 0.000000
vt 24.000000 -22.500000 0.000000
vt 24.000000 23.500000 0.000000
vt 50.000000 0.000000 0.000000
vt 49.866024 0.500000 0.000000
vt 49.500000 0.866025 0.000000
vt 49.000000 1.000000 0.000000
vt 1.000000 1.000000 0.000000
vt 0.500000 0.866025 0.000000
vt 0.133975 0.500000 0.000000
vt 0.000000 0.000000 0.000000
vt -25.000000 23.500000 0.000000
vt -25.000000 -23.500000 0.000000
vt 25.000000 -23.500000 0.000000
vt 25.000000 23.500000 0.000000
vn 0.100000 -0.000000 -0.000000
vn 0.100000 -0.000000 -0.000000
vn 0.086603 -0.000000 0.050000
vn 0.050000 0.000000 0.086603
vn 0.000000 0.000000 0.100000
vn 0.000000 0.000000 0.100000
vn 0.038268 0.000000 0.092388
vn 0.070711 -0.000000 0.070711
vn 0.092388 -0.000000 0.038268
vn -0.000000 -0.100000 0.000000
vn -0.000000 -0.100000 0.000000
vn -0.000000 -0.092388 0.038268
vn -0.000000 -0.070711 0.070711
vn -0.000000 -0.038268 0.092388
vn 0.000000 0.000000 0.100000
vn 0.000000 0.000000 0.100000
vn -0.000000 -0.038268 0.092388
vn -0.000000 -0.070711 0.070711
vn -0.000000 -0.092388 0.038268
vn 0.000000 0.000000 0.100000
vn 0.000000 0.000000 0.100000
vn -0.050000 0.000000 0.086603
vn -0.086603 0.000000 0.050000
vn -0.100000 0.000000 0.000000
vn -0.100000 0.000000 0.000000
vn -0.092388 0.000000 0.038268
vn -0.070711 0.000000 0.070711
vn -0.038268 0.000000 0.092388
vn 0.000000 0.000000 0.100000
vn 0.000000 0.000000 0.100000
vn 0.000000 0.000000 0.100000
vn 0.000000 0.000000 0.100000
vn 0.000000 0.100000 -0.000000
vn 0.000000 0.100000 -0.000000
vn 0.000000 0.100000 -0.000000
vn 0.000000 0.100000 -0.000000
vn 0.000000 0.100000 -0.000000
vn 0.000000 0.100000 -0.000000
vn 0.000000 0.100000 -0.000000
vn 0.000000 0.100000 -0.000000
vn -0.000000 -0.000000 -0.100000
vn -0.000000 -0.000000 -0.100000
vn -0.000000 -0.000000 -0.100000
vn -0.000000 -0.000000 -0.100000
f 37/61/61 38/62/62 36/69/69
f 36/69/69 38/62/62 35/63/63
f 36/69/69 35/63/63 34/68/68
f 34/68/68 35/63/63 33/64/64
f 34/68/68 33/64/64 32/67/67
f 32/67/67 33/64/64 31/65/65
f 32/67/67 31/65/65 30/66/66
f 21/70/70 37/71/71 23/79/79
f 23/79/79 37/71/71 36/72/72
f 23/79/79 36/72/72 34/73/73
f 23/79/79 34/73/73 25/78/78
f 25/78/78 34/73/73 32/74/74
f 25/78/78 32/74/74 27/77/77
f 27/77/77 32/74/74 28/76/76
f 28/76/76 32/74/74 30/75/75
f 28/80/80 29/81/81 27/88/88
f 27/88/88 29/81/81 26/82/82
f 27/88/88 26/82/82 25/87/87
f 25/87/87 26/82/82 24/83/83
f 25/87/87 24/83/83 23/86/86
f 23/86/86 24/83/83 22/84/84
f 23/86/86 22/84/84 21/85/85
f 28/90/90 30/91/91 29/89/89
f 29/89/89 30/91/91 31/92/92
f 38/100/100 22/93/93 35/99/99
f 35/99/99 22/93/93 24/94/94
f 35/99/99 24/94/94 33/98/98
f 33/98/98 24/94/94 26/95/95
f 33/98/98 26/95/95 31/97/97
f 31/97/97 26/95/95 29/96/96
f 37/102/102 21/103/103 38/101/101
f 38/101/101 21/103/103 22/104/104
g S贸lido1:2

v 85.000000 110.000000 280.000000
v 85.000000 360.000000 280.000000
v 85.384294 110.384294 283.901806
v 85.384294 359.615707 283.901806
v 86.522409 111.522409 287.653669
v 86.522409 358.477592 287.653669
v 88.370608 113.370608 291.111405
v 88.370608 356.629391 291.111405
v 90.857865 115.857865 294.142135
v 90.857865 354.142132 294.142135
v 93.888595 118.888595 296.629392
v 93.888595 351.111412 296.629392
v 97.346331 122.346331 298.477590
v 97.346331 347.653675 298.477590
v 101.098194 126.098194 299.615705
v 101.098194 343.901806 299.615705
v 105.000000 130.000000 300.000000
v 105.000000 340.000000 300.000000
v 125.000000 155.000000 298.000000
v 125.000000 155.000000 300.000000
v 125.000000 315.000000 298.000000
v 125.000000 315.000000 300.000000
v 375.000000 155.000000 298.000000
v 375.000000 155.000000 300.000000
v 375.000000 315.000000 298.000000
v 375.000000 315.000000 300.000000
v 395.000000 130.000000 300.000000
v 395.000000 340.000000 300.000000
v 398.901806 126.098194 299.615705
v 398.901806 343.901806 299.615705
v 402.653675 122.346331 298.477590
v 402.653675 347.653675 298.477590
v 406.111412 118.888595 296.629392
v 406.111412 351.111412 296.629392
v 409.142151 115.857865 294.142135
v 409.142151 354.142132 294.142135
v 411.629410 113.370608 291.111405
v 411.629410 356.629391 291.111405
v 413.477592 111.522409 287.653669
v 413.477592 358.477592 287.653669
v 414.615707 110.384294 283.901806
v 414.615707 359.615707 283.901806
v 415.000000 110.000000 280.000000
v 415.000000 360.000000 280.000000
vt -22.750000 -1.570796 0.000000
vt 6.250000 -1.570796 0.000000
vt 6.640181 -1.178097 0.000000
vt 7.015367 -0.785398 0.000000
vt 7.361140 -0.392699 0.000000
vt 7.664214 0.000000 0.000000
vt 7.912939 0.392699 0.000000
vt 8.097759 0.785398 0.000000
vt 8.211571 1.178097 0.000000
vt 8.250000 1.570796 0.000000
vt -24.750000 1.570796 0.000000
vt -24.711571 1.178097 0.000000
vt -24.597759 0.785398 0.000000
vt -24.412939 0.392699 0.000000
vt -24.164213 0.000000 0.000000
vt -23.861141 -0.392699 0.000000
vt -23.515368 -0.785398 0.000000
vt -23.140181 -1.178097 0.000000
vt -16.750000 -1.570796 0.000000
vt 4.250000 -1.570796 0.000000
vt 4.640181 -1.178097 0.000000
vt 5.015367 -0.785398 0.000000
vt 5.361140 -0.392699 0.000000
vt 5.664214 0.000000 0.000000
vt 5.912939 0.392699 0.000000
vt 6.097759 0.785398 0.000000
vt 6.211571 1.178097 0.000000
vt 6.250000 1.570796 0.000000
vt -18.750000 1.570796 0.000000
vt -18.711571 1.178097 0.000000
vt -18.597759 0.785398 0.000000
vt -18.412939 0.392699 0.000000
vt -18.164213 0.000000 0.000000
vt -17.861141 -0.392699 0.000000
vt -17.515368 -0.785398 0.000000
vt -17.140181 -1.178097 0.000000
vt -22.750000 -1.570796 0.000000
vt 6.250000 -1.570796 0.000000
vt 6.640181 -1.178097 0.000000
vt 7.015367 -0.785398 0.000000
vt 7.361140 -0.392699 0.000000
vt 7.664214 0.000000 0.000000
vt 7.912939 0.392699 0.000000
vt 8.097759 0.785398 0.000000
vt 8.211571 1.178097 0.000000
vt 8.250000 1.570796 0.000000
vt -24.750000 1.570796 0.000000
vt -24.711571 1.178097 0.000000
vt -24.597759 0.785398 0.000000
vt -24.412939 0.392699 0.000000
vt -24.164213 0.000000 0.000000
vt -23.861141 -0.392699 0.000000
vt -23.515368 -0.785398 0.000000
vt -23.140181 -1.178097 0.000000
vt 6.250000 1.570796 0.000000
vt -18.750000 1.570796 0.000000
vt -18.711571 1.178097 0.000000
vt -18.597759 0.785398 0.000000
vt -18.412939 0.392699 0.000000
vt -18.164213 0.000000 0.000000
vt -17.861141 -0.392699 0.000000
vt -17.515368 -0.785398 0.000000
vt -17.140181 -1.178097 0.000000
vt -16.750000 -1.570796 0.000000
vt 4.250000 -1.570796 0.000000
vt 4.640181 -1.178097 0.000000
vt 5.015367 -0.785398 0.000000
vt 5.361140 -0.392699 0.000000
vt 5.664214 0.000000 0.000000
vt 5.912939 0.392699 0.000000
vt 6.097759 0.785398 0.000000
vt 6.211571 1.178097 0.000000
vt -12.500000 8.000000 0.000000
vt 12.500000 8.000000 0.000000
vt 12.500000 -8.000000 0.000000
vt -12.500000 -8.000000 0.000000
vt -14.500000 -10.500000 0.000000
vt 14.500000 -10.500000 0.000000
vt 14.500000 10.500000 0.000000
vt -14.500000 10.500000 0.000000
vt -16.500000 12.500000 0.000000
vt -16.500000 -12.500000 0.000000
vt 16.500000 -12.500000 0.000000
vt 16.500000 12.500000 0.000000
vt -25.000000 0.000000 0.000000
vt -0.000000 0.000000 0.000000
vt -0.000000 0.200000 0.000000
vt -25.000000 0.200000 0.000000
vt -16.000000 0.000000 0.000000
vt -0.000000 0.000000 0.000000
vt -0.000000 0.200000 0.000000
vt -16.000000 0.200000 0.000000
vt -25.000000 0.000000 0.000000
vt -0.000000 0.000000 0.000000
vt -0.000000 0.200000 0.000000
vt -25.000000 0.200000 0.000000
vt -16.000000 0.000000 0.000000
vt -0.000000 0.000000 0.000000
vt -0.000000 0.200000 0.000000
vt -16.000000 0.200000 0.000000
vt 12.500000 -8.000000 0.000000
vt 12.500000 8.000000 0.000000
vt -12.500000 8.000000 0.000000
vt -12.500000 -8.000000 0.000000
vn 0.000000 0.000000 0.100000
vn 0.000000 0.000000 0.100000
vn 0.000000 -0.019509 0.098079
vn 0.000000 -0.038268 0.092388
vn 0.000000 -0.055557 0.083147
vn 0.000000 -0.070711 0.070711
vn -0.000000 -0.083147 0.055557
vn -0.000000 -0.092388 0.038268
vn -0.000000 -0.098079 0.019509
vn -0.000000 -0.100000 0.000000
vn -0.000000 -0.100000 0.000000
vn -0.000000 -0.098079 0.019509
vn -0.000000 -0.092388 0.038268
vn -0.000000 -0.083147 0.055557
vn 0.000000 -0.070711 0.070711
vn 0.000000 -0.055557 0.083147
vn 0.000000 -0.038268 0.092388
vn 0.000000 -0.019509 0.098079
vn 0.000000 0.000000 0.100000
vn 0.000000 0.000000 0.100000
vn -0.019509 0.000000 0.098079
vn -0.038268 0.000000 0.092388
vn -0.055557 0.000000 0.083147
vn -0.070711 0.000000 0.070711
vn -0.083147 0.000000 0.055557
vn -0.092388 0.000000 0.038268
vn -0.098079 0.000000 0.019509
vn -0.100000 0.000000 0.000000
vn -0.100000 0.000000 0.000000
vn -0.098079 0.000000 0.019509
vn -0.092388 0.000000 0.038268
vn -0.083147 0.000000 0.055557
vn -0.070711 0.000000 0.070711
vn -0.055557 0.000000 0.083147
vn -0.038268 0.000000 0.092388
vn -0.019509 0.000000 0.098079
vn 0.000000 0.000000 0.100000
vn 0.000000 0.000000 0.100000
vn 0.000000 0.019509 0.098079
vn 0.000000 0.038268 0.092388
vn 0.000000 0.055557 0.083147
vn 0.000000 0.070711 0.070711
vn 0.000000 0.083147 0.055557
vn 0.000000 0.092388 0.038268
vn 0.000000 0.098079 0.019509
vn 0.000000 0.100000 -0.000000
vn 0.000000 0.100000 -0.000000
vn 0.000000 0.098079 0.019509
vn 0.000000 0.092388 0.038268
vn 0.000000 0.083147 0.055557
vn 0.000000 0.070711 0.070711
vn 0.000000 0.055557 0.083147
vn 0.000000 0.038268 0.092388
vn 0.000000 0.019509 0.098079
vn 0.100000 -0.000000 -0.000000
vn 0.100000 -0.000000 -0.000000
vn 0.098079 -0.000000 0.019509
vn 0.092388 -0.000000 0.038268
vn 0.083147 0.000000 0.055557
vn 0.070711 0.000000 0.070711
vn 0.055557 0.000000 0.083147
vn 0.038268 0.000000 0.092388
vn 0.019509 0.000000 0.098079
vn 0.000000 0.000000 0.100000
vn 0.000000 0.000000 0.100000
vn 0.019509 0.000000 0.098079
vn 0.038268 0.000000 0.092388
vn 0.055557 0.000000 0.083147
vn 0.070711 0.000000 0.070711
vn 0.083147 0.000000 0.055557
vn 0.092388 -0.000000 0.038268
vn 0.098079 -0.000000 0.019509
vn 0.000000 0.000000 0.100000
vn 0.000000 0.000000 0.100000
vn 0.000000 0.000000 0.100000
vn 0.000000 0.000000 0.100000
vn 0.000000 0.000000 0.100000
vn 0.000000 0.000000 0.100000
vn 0.000000 0.000000 0.100000
vn 0.000000 0.000000 0.100000
vn -0.000000 -0.000000 -0.100000
vn -0.000000 -0.000000 -0.100000
vn -0.000000 -0.000000 -0.100000
vn -0.000000 -0.000000 -0.100000
vn -0.000000 -0.100000 0.000000
vn -0.000000 -0.100000 0.000000
vn -0.000000 -0.100000 0.000000
vn -0.000000 -0.100000 0.000000
vn 0.100000 -0.000000 -0.000000
vn 0.100000 -0.000000 -0.000000
vn 0.100000 -0.000000 -0.000000
vn 0.100000 -0.000000 -0.000000
vn 0.000000 0.100000 -0.000000
vn 0.000000 0.100000 -0.000000
vn 0.000000 0.100000 -0.000000
vn 0.000000 0.100000 -0.000000
vn -0.100000 0.000000 0.000000
vn -0.100000 0.000000 0.000000
vn -0.100000 0.000000 0.000000
vn -0.100000 0.000000 0.000000
vn 0.000000 0.000000 0.100000
vn 0.000000 0.000000 0.100000
vn 0.000000 0.000000 0.100000
vn 0.000000 0.000000 0.100000
f 65/105/105 55/106/106 67/122/122
f 67/122/122 55/106/106 53/107/107
f 67/122/122 53/107/107 51/108/108
f 67/122/122 51/108/108 69/121/121
f 69/121/121 51/108/108 49/109/109
f 69/121/121 49/109/109 71/120/120
f 71/120/120 49/109/109 73/119/119
f 73/119/119 49/109/109 47/110/110
f 73/119/119 47/110/110 75/118/118
f 75/118/118 47/110/110 45/111/111
f 75/118/118 45/111/111 43/112/112
f 75/118/118 43/112/112 77/117/117
f 77/117/117 43/112/112 41/113/113
f 77/117/117 41/113/113 79/116/116
f 79/116/116 41/113/113 81/115/115
f 81/115/115 41/113/113 39/114/114
f 55/123/123 56/124/124 53/140/140
f 53/140/140 56/124/124 54/125/125
f 53/140/140 54/125/125 52/126/126
f 53/140/140 52/126/126 51/139/139
f 51/139/139 52/126/126 50/127/127
f 51/139/139 50/127/127 49/138/138
f 49/138/138 50/127/127 47/137/137
f 47/137/137 50/127/127 48/128/128
f 47/137/137 48/128/128 45/136/136
f 45/136/136 48/128/128 46/129/129
f 45/136/136 46/129/129 44/130/130
f 45/136/136 44/130/130 43/135/135
f 43/135/135 44/130/130 42/131/131
f 43/135/135 42/131/131 41/134/134
f 41/134/134 42/131/131 39/133/133
f 39/133/133 42/131/131 40/132/132
f 56/141/141 66/142/142 54/158/158
f 54/158/158 66/142/142 68/143/143
f 54/158/158 68/143/143 70/144/144
f 54/158/158 70/144/144 52/157/157
f 52/157/157 70/144/144 72/145/145
f 52/157/157 72/145/145 50/156/156
f 50/156/156 72/145/145 48/155/155
f 48/155/155 72/145/145 74/146/146
f 48/155/155 74/146/146 46/154/154
f 46/154/154 74/146/146 76/147/147
f 46/154/154 76/147/147 78/148/148
f 46/154/154 78/148/148 44/153/153
f 44/153/153 78/148/148 80/149/149
f 44/153/153 80/149/149 42/152/152
f 42/152/152 80/149/149 40/151/151
f 40/151/151 80/149/149 82/150/150
f 81/159/159 82/160/160 79/176/176
f 79/176/176 82/160/160 80/161/161
f 79/176/176 80/161/161 78/162/162
f 79/176/176 78/162/162 77/175/175
f 77/175/175 78/162/162 76/163/163
f 77/175/175 76/163/163 75/174/174
f 75/174/174 76/163/163 73/173/173
f 73/173/173 76/163/163 74/164/164
f 73/173/173 74/164/164 71/172/172
f 71/172/172 74/164/164 72/165/165
f 71/172/172 72/165/165 70/166/166
f 71/172/172 70/166/166 69/171/171
f 69/171/171 70/166/166 68/167/167
f 69/171/171 68/167/167 67/170/170
f 67/170/170 68/167/167 65/169/169
f 65/169/169 68/167/167 66/168/168
f 64/178/178 56/184/184 60/177/177
f 60/177/177 56/184/184 55/181/181
f 60/177/177 55/181/181 58/180/180
f 58/180/180 55/181/181 65/182/182
f 58/180/180 65/182/182 62/179/179
f 62/179/179 65/182/182 64/178/178
f 64/178/178 65/182/182 66/183/183
f 64/178/178 66/183/183 56/184/184
f 81/186/186 39/187/187 82/185/185
f 82/185/185 39/187/187 40/188/188
f 64/189/189 60/190/190 63/192/192
f 63/192/192 60/190/190 59/191/191
f 60/193/193 58/194/194 59/196/196
f 59/196/196 58/194/194 57/195/195
f 58/197/197 62/198/198 57/200/200
f 57/200/200 62/198/198 61/199/199
f 62/201/201 64/202/202 61/204/204
f 61/204/204 64/202/202 63/203/203
f 63/206/206 59/207/207 61/205/205
f 61/205/205 59/207/207 57/208/208
g S贸lido1:3

v 125.000000 315.000000 300.000000
v 125.000000 315.000000 298.000000
v 125.000000 155.000000 300.000000
v 125.000000 155.000000 298.000000
v 375.000000 315.000000 300.000000
v 375.000000 315.000000 298.000000
v 375.000000 155.000000 300.000000
v 375.000000 155.000000 298.000000
vt 0.000000 0.000000 0.000000
vt 25.000000 0.000000 0.000000
vt 25.000000 0.200000 0.000000
vt 0.000000 0.200000 0.000000
vt 0.000000 0.000000 0.000000
vt 16.000000 0.000000 0.000000
vt 16.000000 0.200000 0.000000
vt 0.000000 0.200000 0.000000
vt 0.000000 0.000000 0.000000
vt 25.000000 0.000000 0.000000
vt 25.000000 0.200000 0.000000
vt 0.000000 0.200000 0.000000
vt 0.000000 0.000000 0.000000
vt 16.000000 0.000000 0.000000
vt 16.000000 0.200000 0.000000
vt 0.000000 0.200000 0.000000
vt 12.500000 -8.000000 0.000000
vt 12.500000 8.000000 0.000000
vt -12.500000 8.000000 0.000000
vt -12.500000 -8.000000 0.000000
vt -12.500000 8.000000 0.000000
vt -12.500000 -8.000000 0.000000
vt 12.500000 -8.000000 0.000000
vt 12.500000 8.000000 0.000000
vn 0.000000 0.100000 -0.000000
vn 0.000000 0.100000 -0.000000
vn 0.000000 0.100000 -0.000000
vn 0.000000 0.100000 -0.000000
vn -0.100000 0.000000 0.000000
vn -0.100000 0.000000 0.000000
vn -0.100000 0.000000 0.000000
vn -0.100000 0.000000 0.000000
vn -0.000000 -0.100000 0.000000
vn -0.000000 -0.100000 0.000000
vn -0.000000 -0.100000 0.000000
vn -0.000000 -0.100000 0.000000
vn 0.100000 -0.000000 -0.000000
vn 0.100000 -0.000000 -0.000000
vn 0.100000 -0.000000 -0.000000
vn 0.100000 -0.000000 -0.000000
vn -0.000000 -0.000000 -0.100000
vn -0.000000 -0.000000 -0.100000
vn -0.000000 -0.000000 -0.100000
vn -0.000000 -0.000000 -0.100000
vn 0.000000 0.000000 0.100000
vn 0.000000 0.000000 0.100000
vn 0.000000 0.000000 0.100000
vn 0.000000 0.000000 0.100000
f 83/209/209 87/210/210 84/212/212
f 84/212/212 87/210/210 88/211/211
f 85/213/213 83/214/214 86/216/216
f 86/216/216 83/214/214 84/215/215
f 89/217/217 85/218/218 90/220/220
f 90/220/220 85/218/218 86/219/219
f 87/221/221 89/222/222 88/224/224
f 88/224/224 89/222/222 90/223/223
f 90/226/226 86/227/227 88/225/225
f 88/225/225 86/227/227 84/228/228
f 87/230/230 83/231/231 89/229/229
f 89/229/229 83/231/231 85/232/232
# 90 vertices
# 232 texture params
# 232 normals
# 164 facets

# 4 groups
