# WaveFront *.obj file (generated by Autodesk ATF)

mtllib puerta entrada.mtl

g Sólido1

v -100.000000 0.000000 -0.000000
v -100.000000 0.000000 -10.000000
v -100.000000 2170.000000 0.000000
v -100.000000 2170.000000 -10.000000
v -1050.000000 0.000000 -0.000000
v -1050.000000 0.000000 -10.000000
v -1050.000000 2170.000000 0.000000
v -1050.000000 2170.000000 -10.000000
vt 0.000000 0.000000 0.000000
vt 95.000000 0.000000 0.000000
vt 95.000000 1.000000 0.000000
vt 0.000000 1.000000 0.000000
vt 0.000000 0.000000 0.000000
vt 217.000000 0.000000 0.000000
vt 217.000000 1.000000 0.000000
vt 0.000000 1.000000 0.000000
vt 0.000000 0.000000 0.000000
vt 95.000000 0.000000 0.000000
vt 95.000000 1.000000 0.000000
vt 0.000000 1.000000 0.000000
vt 0.000000 0.000000 0.000000
vt 217.000000 0.000000 0.000000
vt 217.000000 1.000000 0.000000
vt 0.000000 1.000000 0.000000
vt 47.500000 -108.500000 0.000000
vt 47.500000 108.500000 0.000000
vt -47.500000 108.500000 0.000000
vt -47.500000 -108.500000 0.000000
vt -47.500000 108.500000 0.000000
vt -47.500000 -108.500000 0.000000
vt 47.500000 -108.500000 0.000000
vt 47.500000 108.500000 0.000000
vn -0.000000 -0.100000 -0.000000
vn -0.000000 -0.100000 -0.000000
vn -0.000000 -0.100000 -0.000000
vn -0.000000 -0.100000 -0.000000
vn 0.100000 -0.000000 0.000000
vn 0.100000 -0.000000 0.000000
vn 0.100000 -0.000000 0.000000
vn 0.100000 -0.000000 0.000000
vn 0.000000 0.100000 0.000000
vn 0.000000 0.100000 0.000000
vn 0.000000 0.100000 0.000000
vn 0.000000 0.100000 0.000000
vn -0.100000 0.000000 -0.000000
vn -0.100000 0.000000 -0.000000
vn -0.100000 0.000000 -0.000000
vn -0.100000 0.000000 -0.000000
vn 0.000000 0.000000 -0.100000
vn 0.000000 0.000000 -0.100000
vn 0.000000 0.000000 -0.100000
vn 0.000000 0.000000 -0.100000
vn -0.000000 -0.000000 0.100000
vn -0.000000 -0.000000 0.100000
vn -0.000000 -0.000000 0.100000
vn -0.000000 -0.000000 0.100000
usemtl 191,191,191
f 1/1/1 5/2/2 2/4/4
f 2/4/4 5/2/2 6/3/3
f 3/5/5 1/6/6 4/8/8
f 4/8/8 1/6/6 2/7/7
f 7/9/9 3/10/10 8/12/12
f 8/12/12 3/10/10 4/11/11
f 5/13/13 7/14/14 6/16/16
f 6/16/16 7/14/14 8/15/15
f 8/18/18 4/19/19 6/17/17
f 6/17/17 4/19/19 2/20/20
f 5/22/22 1/23/23 7/21/21
f 7/21/21 1/23/23 3/24/24
g Sólido2

v -2100.000000 0.000000 -100.000000
v -2100.000000 0.000000 -0.000000
v -2100.000000 2270.000000 -100.000000
v -2100.000000 2270.000000 0.000000
v -2000.000000 0.000000 -100.000000
v -2000.000000 0.000000 -0.000000
v -2000.000000 2170.000000 -100.000000
v -2000.000000 2170.000000 0.000000
v -100.000000 0.000000 -100.000000
v -100.000000 0.000000 -0.000000
v -100.000000 2170.000000 -100.000000
v -100.000000 2170.000000 0.000000
v 0.000000 0.000000 -100.000000
v 0.000000 0.000000 0.000000
v 0.000000 2270.000000 -100.000000
v 0.000000 2270.000000 0.000000
vt 0.000000 0.000000 0.000000
vt 227.000000 0.000000 0.000000
vt 227.000000 10.000000 0.000000
vt 0.000000 10.000000 0.000000
vt 0.000000 0.000000 0.000000
vt 210.000000 0.000000 0.000000
vt 210.000000 10.000000 0.000000
vt 0.000000 10.000000 0.000000
vt 0.000000 0.000000 0.000000
vt 227.000000 0.000000 0.000000
vt 227.000000 10.000000 0.000000
vt 0.000000 10.000000 0.000000
vt 0.000000 0.000000 0.000000
vt 10.000000 0.000000 0.000000
vt 10.000000 10.000000 0.000000
vt 0.000000 10.000000 0.000000
vt 0.000000 0.000000 0.000000
vt 217.000000 0.000000 0.000000
vt 217.000000 10.000000 0.000000
vt 0.000000 10.000000 0.000000
vt 0.000000 0.000000 0.000000
vt 190.000000 0.000000 0.000000
vt 190.000000 10.000000 0.000000
vt 0.000000 10.000000 0.000000
vt 0.000000 0.000000 0.000000
vt 217.000000 0.000000 0.000000
vt 217.000000 10.000000 0.000000
vt 0.000000 10.000000 0.000000
vt 0.000000 0.000000 0.000000
vt 10.000000 0.000000 0.000000
vt 10.000000 10.000000 0.000000
vt 0.000000 10.000000 0.000000
vt -105.000000 -113.500000 0.000000
vt -95.000000 -113.500000 0.000000
vt -95.000000 103.500000 0.000000
vt 95.000000 103.500000 0.000000
vt 95.000000 -113.500000 0.000000
vt 105.000000 -113.500000 0.000000
vt 105.000000 113.500000 0.000000
vt -105.000000 113.500000 0.000000
vt 95.000000 -113.500000 0.000000
vt 105.000000 -113.500000 0.000000
vt 105.000000 113.500000 0.000000
vt -105.000000 113.500000 0.000000
vt -105.000000 -113.500000 0.000000
vt -95.000000 -113.500000 0.000000
vt -95.000000 103.500000 0.000000
vt 95.000000 103.500000 0.000000
vn -0.100000 0.000000 -0.000000
vn -0.100000 0.000000 -0.000000
vn -0.100000 0.000000 -0.000000
vn -0.100000 0.000000 -0.000000
vn 0.000000 0.100000 0.000000
vn 0.000000 0.100000 0.000000
vn 0.000000 0.100000 0.000000
vn 0.000000 0.100000 0.000000
vn 0.100000 -0.000000 0.000000
vn 0.100000 -0.000000 0.000000
vn 0.100000 -0.000000 0.000000
vn 0.100000 -0.000000 0.000000
vn -0.000000 -0.100000 -0.000000
vn -0.000000 -0.100000 -0.000000
vn -0.000000 -0.100000 -0.000000
vn -0.000000 -0.100000 -0.000000
vn -0.100000 0.000000 -0.000000
vn -0.100000 0.000000 -0.000000
vn -0.100000 0.000000 -0.000000
vn -0.100000 0.000000 -0.000000
vn -0.000000 -0.100000 -0.000000
vn -0.000000 -0.100000 -0.000000
vn -0.000000 -0.100000 -0.000000
vn -0.000000 -0.100000 -0.000000
vn 0.100000 -0.000000 0.000000
vn 0.100000 -0.000000 0.000000
vn 0.100000 -0.000000 0.000000
vn 0.100000 -0.000000 0.000000
vn -0.000000 -0.100000 -0.000000
vn -0.000000 -0.100000 -0.000000
vn -0.000000 -0.100000 -0.000000
vn -0.000000 -0.100000 -0.000000
vn -0.000000 -0.000000 0.100000
vn -0.000000 -0.000000 0.100000
vn -0.000000 -0.000000 0.100000
vn -0.000000 -0.000000 0.100000
vn -0.000000 -0.000000 0.100000
vn -0.000000 -0.000000 0.100000
vn -0.000000 -0.000000 0.100000
vn -0.000000 -0.000000 0.100000
vn 0.000000 0.000000 -0.100000
vn 0.000000 0.000000 -0.100000
vn 0.000000 0.000000 -0.100000
vn 0.000000 0.000000 -0.100000
vn 0.000000 0.000000 -0.100000
vn 0.000000 0.000000 -0.100000
vn 0.000000 0.000000 -0.100000
vn 0.000000 0.000000 -0.100000
f 11/25/25 9/26/26 12/28/28
f 12/28/28 9/26/26 10/27/27
f 23/29/29 11/30/30 24/32/32
f 24/32/32 11/30/30 12/31/31
f 21/33/33 23/34/34 22/36/36
f 22/36/36 23/34/34 24/35/35
f 17/37/37 21/38/38 18/40/40
f 18/40/40 21/38/38 22/39/39
f 19/41/41 17/42/42 20/44/44
f 20/44/44 17/42/42 18/43/43
f 15/45/45 19/46/46 16/48/48
f 16/48/48 19/46/46 20/47/47
f 13/49/49 15/50/50 14/52/52
f 14/52/52 15/50/50 16/51/51
f 9/53/53 13/54/54 10/56/56
f 10/56/56 13/54/54 14/55/55
f 14/58/58 16/59/59 10/57/57
f 10/57/57 16/59/59 12/64/64
f 12/64/64 16/59/59 20/60/60
f 12/64/64 20/60/60 24/63/63
f 24/63/63 20/60/60 22/62/62
f 22/62/62 20/60/60 18/61/61
f 13/65/65 9/66/66 15/72/72
f 15/72/72 9/66/66 11/67/67
f 15/72/72 11/67/67 23/68/68
f 15/72/72 23/68/68 19/71/71
f 19/71/71 23/68/68 21/69/69
f 19/71/71 21/69/69 17/70/70
g Sólido1:1

v -955.000000 2170.000000 -10.000000
v -955.000000 0.000000 -10.000000
v -959.464760 2170.000000 -15.320889
v -959.464760 0.000000 -15.320889
v -965.480108 2170.000000 -18.793852
v -965.480108 0.000000 -18.793852
v -972.320509 2170.000000 -20.000000
v -972.320509 0.000000 -20.000000
v -1050.000000 2170.000000 -20.000000
v -1050.000000 2170.000000 -10.000000
v -1050.000000 2170.000000 0.000000
v -1050.000000 0.000000 -20.000000
v -1050.000000 0.000000 -10.000000
v -1050.000000 0.000000 -0.000000
v -1055.000000 2170.000000 -18.660254
v -1055.000000 0.000000 -18.660254
v -1058.660254 2170.000000 -15.000000
v -1058.660254 0.000000 -15.000000
v -1060.000000 2170.000000 -10.000000
v -1060.000000 0.000000 -10.000000
v -2000.000000 2170.000000 -10.000000
v -2000.000000 2170.000000 0.000000
v -2000.000000 0.000000 -10.000000
v -2000.000000 0.000000 -0.000000
vt 217.000000 0.000000 0.000000
vt 217.000000 0.698132 0.000000
vt 217.000000 1.396263 0.000000
vt 217.000000 2.094395 0.000000
vt 0.000000 2.094395 0.000000
vt 0.000000 1.396263 0.000000
vt 0.000000 0.698132 0.000000
vt 0.000000 0.000000 0.000000
vt 217.000000 7.767949 0.000000
vt 0.000000 7.767949 0.000000
vt 0.000000 0.000000 0.000000
vt 217.000000 0.000000 0.000000
vt 102.767952 -1.000000 0.000000
vt 103.451988 -0.879385 0.000000
vt 104.053528 -0.532089 0.000000
vt 104.500000 0.000000 0.000000
vt 95.000000 0.000000 0.000000
vt 95.000000 1.000000 0.000000
vt 0.000000 1.000000 0.000000
vt 0.000000 0.000000 0.000000
vt 94.000000 0.000000 0.000000
vt 94.133972 -0.500000 0.000000
vt 94.500000 -0.866025 0.000000
vt 95.000000 -1.000000 0.000000
vt -108.500000 0.000000 0.000000
vt 108.500000 0.000000 0.000000
vt 108.500000 0.523599 0.000000
vt 108.500000 1.047198 0.000000
vt 108.500000 1.570796 0.000000
vt -108.500000 1.570796 0.000000
vt -108.500000 1.047198 0.000000
vt -108.500000 0.523599 0.000000
vt -0.500000 -108.500000 0.000000
vt -0.500000 108.500000 0.000000
vt -10.000000 108.500000 0.000000
vt -10.000000 -108.500000 0.000000
vt -9.500000 0.000000 0.000000
vt -9.053524 -0.532089 0.000000
vt -8.451989 -0.879385 0.000000
vt -7.767949 -1.000000 0.000000
vt 0.000000 -1.000000 0.000000
vt 0.500000 -0.866025 0.000000
vt 0.866025 -0.500000 0.000000
vt 1.000000 0.000000 0.000000
vt 95.000000 0.000000 0.000000
vt 95.000000 1.000000 0.000000
vt 0.000000 1.000000 0.000000
vt 0.000000 0.000000 0.000000
vt 0.000000 0.000000 0.000000
vt 217.000000 0.000000 0.000000
vt 217.000000 1.000000 0.000000
vt 0.000000 1.000000 0.000000
vt 0.000000 0.000000 0.000000
vt 217.000000 0.000000 0.000000
vt 217.000000 1.000000 0.000000
vt 0.000000 1.000000 0.000000
vt 47.500000 -108.500000 0.000000
vt 47.500000 108.500000 0.000000
vt -47.500000 108.500000 0.000000
vt -47.500000 -108.500000 0.000000
vt 46.500000 -108.500000 0.000000
vt 46.500000 108.500000 0.000000
vt -47.500000 108.500000 0.000000
vt -47.500000 -108.500000 0.000000
vn 0.086603 -0.000000 -0.050000
vn 0.064279 0.000000 -0.076604
vn 0.034202 0.000000 -0.093969
vn 0.000000 0.000000 -0.100000
vn 0.000000 0.000000 -0.100000
vn 0.034202 0.000000 -0.093969
vn 0.064279 0.000000 -0.076604
vn 0.086603 -0.000000 -0.050000
vn 0.000000 0.000000 -0.100000
vn 0.000000 0.000000 -0.100000
vn 0.000000 0.000000 -0.100000
vn 0.000000 0.000000 -0.100000
vn -0.000000 -0.100000 -0.000000
vn -0.000000 -0.100000 -0.000000
vn -0.000000 -0.100000 -0.000000
vn -0.000000 -0.100000 -0.000000
vn -0.000000 -0.100000 -0.000000
vn -0.000000 -0.100000 -0.000000
vn -0.000000 -0.100000 -0.000000
vn -0.000000 -0.100000 -0.000000
vn -0.000000 -0.100000 -0.000000
vn -0.000000 -0.100000 -0.000000
vn -0.000000 -0.100000 -0.000000
vn -0.000000 -0.100000 -0.000000
vn -0.100000 0.000000 -0.000000
vn -0.100000 0.000000 -0.000000
vn -0.086603 0.000000 -0.050000
vn -0.050000 0.000000 -0.086603
vn 0.000000 0.000000 -0.100000
vn 0.000000 0.000000 -0.100000
vn -0.050000 0.000000 -0.086603
vn -0.086603 0.000000 -0.050000
vn -0.000000 -0.000000 0.100000
vn -0.000000 -0.000000 0.100000
vn -0.000000 -0.000000 0.100000
vn -0.000000 -0.000000 0.100000
vn 0.000000 0.100000 0.000000
vn 0.000000 0.100000 0.000000
vn 0.000000 0.100000 0.000000
vn 0.000000 0.100000 0.000000
vn 0.000000 0.100000 0.000000
vn 0.000000 0.100000 0.000000
vn 0.000000 0.100000 0.000000
vn 0.000000 0.100000 0.000000
vn 0.000000 0.100000 0.000000
vn 0.000000 0.100000 0.000000
vn 0.000000 0.100000 0.000000
vn 0.000000 0.100000 0.000000
vn 0.100000 -0.000000 0.000000
vn 0.100000 -0.000000 0.000000
vn 0.100000 -0.000000 0.000000
vn 0.100000 -0.000000 0.000000
vn -0.100000 0.000000 -0.000000
vn -0.100000 0.000000 -0.000000
vn -0.100000 0.000000 -0.000000
vn -0.100000 0.000000 -0.000000
vn -0.000000 -0.000000 0.100000
vn -0.000000 -0.000000 0.100000
vn -0.000000 -0.000000 0.100000
vn -0.000000 -0.000000 0.100000
vn 0.000000 0.000000 -0.100000
vn 0.000000 0.000000 -0.100000
vn 0.000000 0.000000 -0.100000
vn 0.000000 0.000000 -0.100000
f 25/80/80 26/73/73 27/79/79
f 27/79/79 26/73/73 28/74/74
f 27/79/79 28/74/74 30/75/75
f 32/76/76 31/77/77 30/75/75
f 30/75/75 31/77/77 29/78/78
f 30/75/75 29/78/78 27/79/79
f 31/81/81 32/82/82 33/84/84
f 33/84/84 32/82/82 36/83/83
f 36/96/96 32/85/85 40/95/95
f 40/95/95 32/85/85 30/86/86
f 40/95/95 30/86/86 28/87/87
f 40/95/95 28/87/87 42/94/94
f 42/94/94 28/87/87 26/88/88
f 42/94/94 26/88/88 37/89/89
f 42/94/94 37/89/89 44/93/93
f 44/93/93 37/89/89 38/90/90
f 44/93/93 38/90/90 48/91/91
f 48/91/91 47/92/92 44/93/93
f 44/97/97 43/98/98 42/104/104
f 42/104/104 43/98/98 41/99/99
f 42/104/104 41/99/99 40/103/103
f 40/103/103 41/99/99 39/100/100
f 40/103/103 39/100/100 36/102/102
f 36/102/102 39/100/100 33/101/101
f 37/106/106 26/107/107 34/105/105
f 34/105/105 26/107/107 25/108/108
f 34/120/120 25/109/109 41/115/115
f 41/115/115 25/109/109 27/110/110
f 41/115/115 27/110/110 39/114/114
f 39/114/114 27/110/110 29/111/111
f 39/114/114 29/111/111 31/112/112
f 31/112/112 33/113/113 39/114/114
f 41/115/115 43/116/116 34/120/120
f 34/120/120 43/116/116 35/119/119
f 35/119/119 43/116/116 46/118/118
f 46/118/118 43/116/116 45/117/117
f 37/121/121 34/122/122 38/124/124
f 38/124/124 34/122/122 35/123/123
f 45/125/125 47/126/126 46/128/128
f 46/128/128 47/126/126 48/127/127
f 48/130/130 38/131/131 46/129/129
f 46/129/129 38/131/131 35/132/132
f 44/134/134 47/135/135 43/133/133
f 43/133/133 47/135/135 45/136/136
# 48 vertices
# 136 texture params
# 136 normals
# 84 facets

# 3 groups
